<?xml version="1.0" encoding="iso-8859-1"?>
<!-- Generator: Adobe Illustrator 19.0.0, SVG Export Plug-In . SVG Version: 6.00 Build 0)  -->
<svg version="1.1" id="Layer_1" xmlns="http://www.w3.org/2000/svg" xmlns:xlink="http://www.w3.org/1999/xlink" x="0px" y="0px"
	 viewBox="0 0 483 483" style="enable-background:new 0 0 483 483;" xml:space="preserve">
<g>
	<rect x="132.67" style="fill:#D8D7DA;" width="123.231" height="38"/>
	<path style="fill:#C6C5CA;" d="M179.856,348.57c0-21.767,5.206-42.339,14.429-60.545V118h-50v325h50v-33.884
		C185.062,390.909,179.856,370.337,179.856,348.57z"/>
	<rect x="54.285" y="118" style="fill:#C6C5CA;" width="50" height="325"/>
	<rect x="104.285" y="118" style="fill:#D8D7DA;" width="40" height="325"/>
	<path style="fill:#ACABB1;" d="M284.285,217.519c9.65-2.208,19.691-3.378,30-3.378c6.795,0,13.473,0.511,20,1.489V118h-50V217.519z
		"/>
	<path style="fill:#ACABB1;" d="M194.285,118v170.025c11.327-22.359,28.718-41.145,50-54.178V118H194.285z"/>
	<path style="fill:#ACABB1;" d="M194.285,443h24.42c-9.795-9.913-18.063-21.335-24.42-33.884V443z"/>
	<path style="fill:#C6C5CA;" d="M244.285,118v115.847c12.194-7.468,25.663-13.047,40-16.328V118H244.285z"/>
	<rect x="194.285" y="38" style="fill:#787680;" width="160" height="80"/>
	<rect x="34.285" y="38" style="fill:#898890;" width="160" height="80"/>
	<path style="fill:#FFDA44;" d="M314.285,376.855l-29.427,29.427l-28.284-28.284l29.427-29.427l-29.427-29.427l28.284-28.284
		l29.427,29.427V214.141c-10.309,0-20.35,1.17-30,3.378c-14.337,3.28-27.806,8.86-40,16.328c-21.282,13.033-38.673,31.819-50,54.178
		c-9.223,18.207-14.429,38.778-14.429,60.545c0,21.767,5.206,42.339,14.429,60.546c6.357,12.549,14.626,23.971,24.42,33.884
		c24.386,24.68,58.225,40,95.58,40V376.855z"/>
	<path style="fill:#FFCD00;" d="M334.285,215.63c-6.527-0.978-13.205-1.489-20-1.489v106.145c0,0,29.427-29.427,29.427-29.427
		l28.284,28.284l-29.427,29.427l29.427,29.427l-28.284,28.284l-29.427-29.427c0,0,0,106.145,0,106.145
		c74.125,0,134.429-60.305,134.429-134.43C448.715,281.241,398.958,225.319,334.285,215.63z"/>
	<polygon style="fill:#2488FF;" points="256.574,319.144 286.001,348.571 256.574,377.998 284.859,406.282 314.286,376.855 
		343.713,406.282 371.997,377.998 342.57,348.571 371.997,319.144 343.713,290.859 314.286,320.286 284.859,290.859 	"/>
</g>
<g>
</g>
<g>
</g>
<g>
</g>
<g>
</g>
<g>
</g>
<g>
</g>
<g>
</g>
<g>
</g>
<g>
</g>
<g>
</g>
<g>
</g>
<g>
</g>
<g>
</g>
<g>
</g>
<g>
</g>
</svg>
