<?xml version="1.0" encoding="iso-8859-1"?>
<!-- Generator: Adobe Illustrator 19.0.0, SVG Export Plug-In . SVG Version: 6.00 Build 0)  -->
<svg version="1.1" id="Capa_1" xmlns="http://www.w3.org/2000/svg" xmlns:xlink="http://www.w3.org/1999/xlink" x="0px" y="0px"
	 viewBox="0 0 390 390" style="enable-background:new 0 0 390 390;" xml:space="preserve">
<g id="XMLID_1446_">
	<rect id="XMLID_1447_" x="30" y="175" style="fill:#FF5023;" width="60" height="140"/>
	<rect id="XMLID_1448_" x="30" y="105" style="fill:#FF9811;" width="60" height="70"/>
	<rect id="XMLID_1449_" x="30" y="35" style="fill:#FFDA44;" width="60" height="70"/>
	<rect id="XMLID_1450_" x="120" y="245.002" style="fill:#FF5023;" width="60" height="69.998"/>
	<rect id="XMLID_1451_" x="120" y="145" style="fill:#FF9811;" width="60" height="100"/>
	<rect id="XMLID_1452_" x="120" y="75" style="fill:#FFDA44;" width="60" height="70"/>
	<rect id="XMLID_1453_" x="210" y="215" style="fill:#FF5023;" width="60" height="100"/>
	<rect id="XMLID_1454_" x="210" y="105" style="fill:#FF9811;" width="60" height="110"/>
	<rect id="XMLID_1455_" x="210" y="35" style="fill:#FFDA44;" width="60" height="70"/>
	<rect id="XMLID_1456_" x="300" y="245.002" style="fill:#FF5023;" width="60" height="69.998"/>
	<rect id="XMLID_1457_" x="300" y="175" style="fill:#FF9811;" width="60" height="70"/>
	<rect id="XMLID_1458_" x="300" y="75.002" style="fill:#FFDA44;" width="60" height="99.998"/>
	<polygon id="XMLID_1459_" style="fill:#CDCDD0;" points="180,315 120,315 90,315 30,315 0,315 0,355 195,355 195,315 	"/>
	<polygon id="XMLID_1460_" style="fill:#ACABB1;" points="360,315 300,315 270,315 210,315 195,315 195,355 390,355 390,315 	"/>
</g>
<g>
</g>
<g>
</g>
<g>
</g>
<g>
</g>
<g>
</g>
<g>
</g>
<g>
</g>
<g>
</g>
<g>
</g>
<g>
</g>
<g>
</g>
<g>
</g>
<g>
</g>
<g>
</g>
<g>
</g>
</svg>
